<?xml version="1.0" encoding="utf-8"?>
<!-- Generator: Adobe Illustrator 21.1.0, SVG Export Plug-In . SVG Version: 6.00 Build 0)  -->
<svg version="1.1" id="Layer_1" xmlns="http://www.w3.org/2000/svg" xmlns:xlink="http://www.w3.org/1999/xlink" x="0px" y="0px"
	 viewBox="0 0 1000 174" style="enable-background:new 0 0 1000 174;" xml:space="preserve">
<style type="text/css">
	.st0{fill:#FFFFFF;}
</style>
<g>
	<path class="st0" d="M87.8,54.8l1.8,18.7l-8,0.8c-0.4-2.6-1.2-4.8-2.4-6.8c-1.2-1.9-2.6-3.3-4.3-4.2s-3.6-1.4-5.7-1.4
		c-3,0-5.9,0.9-8.7,2.8c-2.8,1.9-5.1,4.6-6.9,8.3c-1.8,3.7-2.7,7.6-2.7,11.7c0,3.3,0.6,6.2,1.7,8.7s2.6,4.4,4.5,5.6
		c1.8,1.2,3.9,1.8,6.1,1.8c1.6,0,3.2-0.3,4.6-0.8c1.4-0.6,2.5-1.2,3.1-2c0.7-0.8,1.2-1.9,1.6-3.6l0.8-3.2c0.1-0.5,0.2-1,0.2-1.7
		c0-0.7-0.2-1.3-0.6-1.7c-0.4-0.4-1-0.5-1.9-0.5l-0.9,0h-3.4l1.7-7.4H95l-1.7,7.4h-2.4c-1.3,0-2.1,0.1-2.7,0.4
		c-0.5,0.2-0.9,0.6-1.3,1.2c-0.3,0.5-0.7,1.6-1.1,3.2l-3.7,16.5h-8l-0.7-3.2c-2.2,1.5-4.4,2.5-6.6,3.2c-2.2,0.7-4.5,1-7,1
		c-6.6,0-12.2-2.3-16.7-7c-4.5-4.7-6.8-10.6-6.8-17.6c0-5.6,1.4-10.8,4.1-15.6c2.7-4.7,6.4-8.5,11.2-11.3c4.8-2.8,9.9-4.2,15.3-4.2
		c1.8,0,3.6,0.2,5.4,0.5c1.8,0.3,3.4,0.8,4.8,1.3c1,0.4,2.1,1,3.4,1.9l1.6-2.8H87.8z"/>
	<path class="st0" d="M116.7,69.1l-2,8.7c1.5-2.2,2.9-3.9,4.3-5.1c1.4-1.2,2.8-2.1,4.4-2.7c1.6-0.6,3.1-0.9,4.6-0.9
		c2.2,0,4,0.6,5.3,1.8c1.3,1.2,1.9,2.7,1.9,4.6c0,2-0.6,3.6-1.7,4.9c-1.2,1.3-2.6,1.9-4.3,1.9c-0.7,0-1.3-0.1-1.9-0.3
		c-0.3-0.1-1.2-0.6-2.6-1.4c-1-0.5-1.8-0.8-2.5-0.8c-0.5,0-1,0.1-1.5,0.3c-0.8,0.4-1.7,1.1-2.7,2.1c-1,1-2,2.6-3.2,4.6
		c-0.8,1.5-1.8,3.9-2.8,7.2c-1,3.3-1.9,6.3-2.5,9.2l-1.3,5.3H96.1l6.4-28.6h-6l1.7-7.4c4.2-0.1,9.1-1.2,14.8-3.4H116.7z"/>
	<path class="st0" d="M169.7,73.4l2.5-3.3h9.2L175,95.9c-0.4,1.8-0.6,2.9-0.6,3.4c0,0.5,0.2,0.8,0.5,1.1c0.3,0.3,0.7,0.4,1.3,0.4
		c0.5,0,1.2-0.2,2.1-0.7c0.9-0.4,1.8-1.1,2.8-2l4.4,5.1c-2.3,2.2-4.6,3.8-6.8,4.8c-2.2,1-4.5,1.4-6.8,1.4c-1.6,0-3.1-0.3-4.4-0.9
		c-1.3-0.6-2.4-1.4-3.3-2.4s-1.5-2.2-1.9-3.5c-1.1,1.4-2.5,2.6-4.1,3.7c-1.6,1.1-3.1,1.9-4.6,2.4c-1.5,0.5-3.1,0.7-4.9,0.7
		c-2.8,0-5.2-0.6-7.3-1.9c-2.1-1.3-3.7-3.1-4.9-5.4c-1.2-2.3-1.8-5.1-1.8-8.4c0-6.7,2.4-12.5,7.2-17.3c4.8-4.9,10.3-7.3,16.5-7.3
		c2.3,0,4.2,0.3,6,0.9C165.9,70.7,167.8,71.8,169.7,73.4z M166.3,79.8c-1.4-1.1-2.6-1.8-3.6-2.2c-1-0.4-2-0.6-3-0.6
		c-3.4,0-6.2,1.8-8.4,5.4c-2.3,3.6-3.4,7.6-3.4,11.8c0,1.8,0.5,3.2,1.4,4.3c0.9,1.1,2,1.7,3.2,1.7c1.4,0,2.8-0.5,4.2-1.5
		c1.9-1.4,3.7-3.7,5.4-7C163.8,88.5,165.2,84.5,166.3,79.8z"/>
	<path class="st0" d="M194.9,79.9H190l1.6-7.4c5.5-0.6,10.1-1.8,13.8-3.4h3.5l-1.5,7.3c1.6-1.9,3.1-3.3,4.5-4.3
		c1.4-0.9,2.9-1.7,4.7-2.2s3.6-0.8,5.4-0.8c2.7,0,5.1,0.6,7.2,1.8c2.1,1.2,3.7,3,5,5.4c1.2,2.4,1.8,5.1,1.8,8.2
		c0,4.2-1.2,8.4-3.5,12.4c-2.3,4.1-5.3,7.2-8.9,9.3c-3.6,2.1-7.6,3.2-11.8,3.2c-2,0-3.8-0.3-5.4-0.8c-1.6-0.5-3.3-1.4-5.2-2.6
		l-1.8,8.4c-0.3,1.1-0.4,1.9-0.4,2.2c0,0.6,0.3,1.1,0.9,1.4c0.4,0.2,1.5,0.3,3.2,0.3h1.7l-1.8,7.4h-24.1l1.6-7.4h1.3
		c1.7,0,2.7-0.1,3.3-0.3s0.9-0.5,1.3-1c0.3-0.5,0.7-1.6,1-3.2L194.9,79.9z M202.9,98.4c2.1,2.2,4.4,3.3,6.9,3.3
		c1.9,0,3.7-0.6,5.6-1.9c1.9-1.3,3.5-3.4,4.9-6.3c1.4-2.9,2.1-5.9,2.1-8.9c0-2-0.5-3.5-1.4-4.5c-0.9-1-2.1-1.5-3.6-1.5
		c-1.6,0-3.4,0.7-5.3,2.2c-1.9,1.4-3.8,3.9-5.7,7.4c-1.3,2.5-2.3,5.1-2.9,7.9L202.9,98.4z"/>
	<path class="st0" d="M262.8,52h3.6l-5.6,24.8c1.8-2,3.4-3.5,5-4.5c1.5-1,3.2-1.8,4.9-2.3c1.8-0.5,3.5-0.8,5.3-0.8
		c2.4,0,4.4,0.4,6.1,1.2c1.7,0.8,3,1.9,4,3.4c1,1.5,1.5,3.1,1.5,4.7c0,0.6,0,1.1-0.1,1.7c0,0.3-0.2,1-0.5,2.4l-3,13.8
		c-0.4,1.6-0.5,2.6-0.5,3c0,0.4,0.2,0.8,0.5,1.2c0.3,0.3,0.7,0.5,1.2,0.5c0.5,0,1.2-0.2,1.9-0.5c0.7-0.3,1.8-1.1,3.1-2.2l4.4,5.1
		c-2.6,2.3-5,4-7.1,4.9s-4.2,1.4-6.2,1.4c-2.9,0-5.2-0.8-7.1-2.5c-1.8-1.6-2.8-3.6-2.8-5.8c0-1.4,0.2-3.2,0.7-5.4l2.5-11
		c0.4-1.9,0.6-3.2,0.6-3.9c0-0.7-0.3-1.3-0.8-1.7c-0.5-0.4-1.2-0.7-2-0.7c-1.9,0-3.9,0.8-5.9,2.5c-2.6,2.1-4.9,5.3-7.1,9.8
		c-1.8,3.8-3.3,7.8-4.4,12.1l-1.4,5.6h-12.1l10.3-45.9h-6l1.7-7.5C252.4,55,257.4,53.9,262.8,52z"/>
	<path class="st0" d="M314.8,69.1h3.9L312.1,96c-0.5,1.9-0.7,3-0.7,3.4c0,0.4,0.1,0.8,0.4,1.1s0.6,0.4,1.1,0.4
		c1.3,0,2.8-0.9,4.7-2.8l4.1,5.1c-4.1,4.2-8.4,6.2-12.9,6.2c-2,0-3.7-0.4-5.1-1.1s-2.5-1.7-3.4-3.1c-0.8-1.4-1.3-2.7-1.3-4
		c0-0.5,0.1-1.3,0.3-2.4c0.2-1.7,0.5-3,0.8-4l3.7-14.9H296l1.8-7.4C304.1,71.9,309.8,70.7,314.8,69.1z M313.6,52
		c2,0,3.5,0.6,4.6,1.9c1.1,1.3,1.7,2.8,1.7,4.6c0,1.3-0.3,2.6-1,3.8c-0.7,1.2-1.7,2.2-2.9,2.9c-1.3,0.7-2.5,1.1-3.7,1.1
		c-1.1,0-2.2-0.3-3.3-0.9c-1.1-0.6-1.9-1.4-2.5-2.4c-0.6-1-0.9-2.1-0.9-3.2c0-1.3,0.4-2.6,1.1-3.8c0.7-1.3,1.7-2.2,2.9-2.9
		C310.8,52.3,312.1,52,313.6,52z"/>
	<path class="st0" d="M360,95.7l4.3,5.8c-6.9,5.3-14,8-21.2,8c-5.3,0-9.6-1.5-12.8-4.6c-3.2-3-4.8-7-4.8-11.7c0-4.1,1.2-8,3.5-11.7
		c2.3-3.7,5.5-6.7,9.5-9c4.1-2.3,8.4-3.4,13-3.4c4.6,0,8.2,1.1,10.8,3.2c2.7,2.1,4,4.6,4,7.5c0,2-0.6,3.6-1.7,4.8
		c-1.1,1.2-2.6,1.8-4.5,1.8c-1.1,0-2.1-0.3-3-0.8c-0.9-0.5-1.6-1.2-2.2-2.1c-0.3-0.4-0.6-1.2-0.9-2.4c-0.3-1.2-0.7-2.1-1-2.6
		c-0.3-0.5-0.8-0.8-1.3-1.1c-0.6-0.3-1.1-0.4-1.8-0.4c-1.4,0-2.8,0.6-4.3,1.8c-1.9,1.5-3.5,3.7-4.8,6.5c-1.3,2.8-2,5.6-2,8.3
		c0,2.2,0.7,4,2,5.3c1.4,1.3,3.1,2,5.4,2c1.8,0,3.9-0.4,6.3-1.3C355.1,98.7,357.5,97.4,360,95.7z"/>
	<path class="st0" d="M444.8,73.2h21l-1.6,7.3h-1.8c-1.4,0-2.4,0.1-3.1,0.4c-0.7,0.3-1.4,0.8-2.1,1.6c-0.3,0.3-1,1.3-1.9,3
		c-1.5,2.5-2.9,4.6-4.3,6.5c-1.4,1.8-2.8,3.5-4.3,4.9c2.4,3.2,4.9,4.8,7.4,4.8c1,0,1.9-0.2,2.8-0.7c0.8-0.5,1.5-1.1,2-2
		c0.5-0.8,0.7-1.8,0.7-2.8l-0.1-1.5c-0.1-1-0.1-1.6-0.1-1.7c0-1.9,0.5-3.3,1.6-4.4c1.1-1.1,2.4-1.6,4-1.6c1.6,0,2.9,0.6,4,1.8
		c1.1,1.2,1.7,2.7,1.7,4.6c0,2.6-0.8,5.1-2.5,7.6c-1.9,2.8-4.2,4.9-7,6.4c-2.8,1.5-6.2,2.2-10.1,2.2c-3.1,0-5.7-0.4-7.8-1.2
		c-2.1-0.8-4.1-2.1-5.8-3.9c-3,1.9-5.9,3.2-8.7,4c-2.8,0.8-6,1.2-9.4,1.2c-4.8,0-8.8-0.8-12.1-2.3c-3.3-1.5-5.8-3.6-7.6-6.3
		c-1.8-2.7-2.7-5.5-2.7-8.5c0-2.8,0.8-5.4,2.3-8c1.5-2.5,3.7-4.7,6.4-6.4c2.8-1.7,6.7-3.1,11.7-4.2c-1.5-0.8-2.6-1.8-3.3-2.9
		c-1.1-1.6-1.7-3.3-1.7-5.1c0-1.9,0.7-3.9,2-5.8c1.4-1.9,3.3-3.5,5.9-4.6c2.6-1.1,5.5-1.7,8.9-1.7c3.1,0,5.7,0.5,7.9,1.4
		c2.2,1,3.9,2.2,4.9,3.8c1.1,1.6,1.6,3.3,1.6,5.3c0,2-0.6,4-1.8,5.8c-1.2,1.8-2.9,3.3-5.1,4.5c-1.6,0.9-3.7,1.5-6.3,2
		c1.1,0.5,2,1.1,2.7,1.7c1.3,1.1,2.5,2.5,3.7,4.2c0.6,0.8,2.4,3.6,5.4,8.5c1.5-1.4,3-3.3,4.6-5.9c0.8-1.3,1.2-2.3,1.2-3.1
		c0-0.5-0.2-0.9-0.7-1.2c-0.5-0.3-1.4-0.4-2.7-0.4h-1.7L444.8,73.2z M422.6,79.1c-4.3,1.3-7.5,3-9.5,5.1c-2,2.1-2.9,4.3-2.9,6.6
		c0,1.7,0.5,3.4,1.4,4.9c1,1.5,2.4,2.7,4.2,3.6c1.8,0.9,3.9,1.4,6.2,1.4c3.5,0,7-0.8,10.2-2.5c-0.8-1.2-1.5-2.4-2.2-3.8
		c-0.7-1.3-1.6-3.5-2.8-6.6c-1.3-3.4-2.3-5.6-2.9-6.7C423.9,80.4,423.3,79.7,422.6,79.1z M428.7,60.9c-1.5,0-2.8,0.6-3.8,1.8
		c-1.1,1.2-1.6,2.7-1.6,4.5c0,0.9,0.2,1.8,0.5,2.6c0.3,0.5,0.7,1,1.3,1.3c0.7,0.4,1.5,0.6,2.3,0.6c1.4,0,2.6-0.6,3.7-1.9
		c1.1-1.3,1.6-2.8,1.6-4.5c0-1.4-0.4-2.5-1.1-3.2C430.9,61.3,430,60.9,428.7,60.9z"/>
	<path class="st0" d="M507,54.8h24.2l-1.7,7.4h-2c-1.8,0-2.9,0.2-3.3,0.6c-0.7,0.5-1,1.3-1,2.2l0.1,1v0.8l2.5,28.3l13-24.8l-0.7-3.5
		l0-0.5c-0.1-1.1-0.4-1.9-0.8-2.5c-0.4-0.6-0.8-1-1.3-1.3c-0.5-0.2-1.4-0.3-2.7-0.3l1.7-7.4h23.8l-1.7,7.4h-2.2
		c-1.6,0-2.7,0.2-3.3,0.7c-0.6,0.5-0.8,1.3-0.8,2.4c0,0.2,0,0.4,0,0.7l2.2,27.9l13-26.6c0.3-0.6,0.6-1.4,0.9-2.3
		c0.1-0.3,0.2-0.6,0.2-0.8c0-0.4-0.1-0.8-0.4-1.2c-0.3-0.4-0.6-0.6-0.9-0.7c-0.3-0.1-1.1-0.2-2.3-0.2h-2.1l1.7-7.4H585l-1.7,7.4
		c-1.1,0-1.9,0.1-2.4,0.2c-0.5,0.1-1,0.3-1.4,0.6c-0.4,0.3-0.9,0.7-1.3,1.3c-0.2,0.3-0.6,0.9-1.1,2l-22.1,42.3h-12.2l-2.8-25.3
		l-13.2,25.3h-12.1L510,66.8c-0.2-1.5-0.4-2.5-0.7-3s-0.7-0.9-1.2-1.2c-0.5-0.3-1.4-0.4-2.8-0.4L507,54.8z"/>
	<path class="st0" d="M614.2,94.7l4.9,5.6c-3.8,3.3-7.3,5.7-10.7,7.1c-3.4,1.4-6.8,2.1-10.4,2.1c-5,0-8.8-1.1-11.6-3.2
		c-4.3-3.3-6.4-7.7-6.4-13.2c0-4.1,1.2-8,3.5-11.6c2.3-3.6,5.7-6.6,10.1-8.9c4.4-2.3,9.1-3.5,14.1-3.5c4.2,0,7.5,0.9,9.8,2.8
		c2.3,1.9,3.5,4.1,3.5,6.8c0,1.9-0.4,3.5-1.2,4.9c-1.1,1.9-2.6,3.4-4.6,4.6c-2,1.2-4.9,2.3-8.9,3.1c-4,0.8-8.2,1.3-12.7,1.3v1
		c0,2.1,0.7,3.9,2.1,5.2c1.4,1.4,3.2,2,5.3,2c1.8,0,3.8-0.5,5.9-1.5C609.8,98.1,612.2,96.5,614.2,94.7z M595,85.8
		c4-0.2,7.2-0.7,9.4-1.4c2.2-0.7,3.7-1.5,4.6-2.5c0.7-0.7,1-1.6,1-2.5c0-0.8-0.3-1.5-1-2.1c-0.7-0.6-1.5-0.8-2.6-0.8
		c-1.3,0-2.7,0.4-4.2,1.1c-1.5,0.7-2.9,1.8-4.1,3.1C597,82,595.9,83.7,595,85.8z"/>
	<path class="st0" d="M647.5,52L642,76.7c1.7-2,3.3-3.5,4.6-4.5c1.3-0.9,2.8-1.7,4.5-2.2c1.7-0.6,3.2-0.8,4.7-0.8
		c2.1,0,4.1,0.6,6,1.8c1.9,1.2,3.4,3,4.6,5.2c1.1,2.3,1.7,4.8,1.7,7.5c0,4.3-1.1,8.6-3.4,12.9s-5.1,7.5-8.5,9.6s-7,3.2-10.9,3.2
		c-4.4,0-8.2-1.4-11.3-4.2l-2.4,3.3h-8.8L633,62.8h-6.2l1.7-7.5c2.4,0,4.6-0.3,6.7-0.7c2.1-0.4,5-1.3,8.8-2.6H647.5z M637,99.2
		c1.4,1,2.5,1.7,3.3,2c0.8,0.3,1.6,0.5,2.4,0.5c1.6,0,3.3-0.7,5-2c1.7-1.3,3.3-3.5,4.7-6.6c1.4-3,2.1-6,2.1-8.9
		c0-1.9-0.4-3.3-1.1-4.2s-1.7-1.4-2.9-1.4c-1.4,0-2.7,0.5-3.9,1.5c-2,1.6-3.9,4.2-5.8,7.7C639,91.1,637.7,95,637,99.2z"/>
	<path class="st0" d="M697.1,108.6l1.7-7.4h1.9c1.3,0,2.3-0.1,2.8-0.2c0.8-0.3,1.4-0.7,1.9-1.3c0.3-0.4,0.7-1.5,1-3.1l6.6-29.5
		c0.3-1.5,0.5-2.5,0.5-2.8c0-0.7-0.3-1.3-0.9-1.7c-0.3-0.2-1.2-0.3-2.7-0.3h-2l1.6-7.4h22.4c4.3,0,7.8,0.4,10.5,1.1
		c2.7,0.8,4.8,1.8,6.3,3c2.6,2.1,4.6,4.6,6,7.5c1.3,2.9,2,6.2,2,10c0,4.6-0.8,9-2.4,13.1c-1.6,4.1-3.8,7.5-6.6,10.2
		c-3.1,3-6.6,5.3-10.5,6.7c-3.9,1.4-8.8,2.2-14.8,2.2H697.1z M727,63.3l-7.6,33.9c-0.3,1-0.4,1.7-0.4,2c0,0.3,0.2,0.6,0.5,0.7
		c0.3,0.2,1,0.2,2.2,0.2h2.4c4.1,0,7.3-0.9,9.7-2.6c2.3-1.8,4.2-4.2,5.8-7.4c2.1-4.3,3.1-9,3.1-14c0-3-0.4-5.5-1.3-7.3
		c-0.9-1.9-2-3.3-3.5-4.1c-1.5-0.9-3.7-1.3-6.6-1.3H727z"/>
	<path class="st0" d="M792.7,94.7l4.9,5.6c-3.8,3.3-7.3,5.7-10.7,7.1c-3.4,1.4-6.8,2.1-10.4,2.1c-5,0-8.8-1.1-11.6-3.2
		c-4.3-3.3-6.4-7.7-6.4-13.2c0-4.1,1.2-8,3.5-11.6c2.3-3.6,5.7-6.6,10.1-8.9c4.4-2.3,9.1-3.5,14.1-3.5c4.2,0,7.5,0.9,9.8,2.8
		c2.3,1.9,3.5,4.1,3.5,6.8c0,1.9-0.4,3.5-1.2,4.9c-1.1,1.9-2.6,3.4-4.6,4.6c-2,1.2-4.9,2.3-8.9,3.1c-4,0.8-8.2,1.3-12.7,1.3v1
		c0,2.1,0.7,3.9,2.1,5.2c1.4,1.4,3.2,2,5.3,2c1.8,0,3.8-0.5,5.9-1.5C788.3,98.1,790.7,96.5,792.7,94.7z M773.5,85.8
		c4-0.2,7.2-0.7,9.4-1.4c2.2-0.7,3.7-1.5,4.6-2.5c0.7-0.7,1-1.6,1-2.5c0-0.8-0.3-1.5-1-2.1c-0.7-0.6-1.5-0.8-2.6-0.8
		c-1.3,0-2.7,0.4-4.2,1.1c-1.5,0.7-2.9,1.8-4.1,3.1C775.5,82,774.4,83.7,773.5,85.8z"/>
	<path class="st0" d="M826.2,69.1c3.4,0,6.4,0.5,9.1,1.4c2.7,1,4.6,2.1,5.7,3.4c1.1,1.3,1.6,2.6,1.6,3.9c0,1.4-0.5,2.6-1.4,3.6
		c-0.9,0.9-2.1,1.4-3.6,1.4c-0.7,0-1.4-0.1-2-0.3c-0.6-0.2-1.2-0.5-1.8-0.8c-0.4-0.2-1.1-0.8-2.2-1.9c-1.1-1-1.8-1.6-2.2-1.9
		c-0.7-0.4-1.4-0.7-2.3-0.9c-0.9-0.2-1.8-0.3-2.8-0.3c-1.8,0-3,0.3-3.8,0.8c-0.8,0.6-1.1,1.2-1.1,2.1c0,0.7,0.2,1.2,0.6,1.6
		c0.6,0.6,1.5,1.1,2.8,1.5c5.1,1.7,8.7,3.1,10.9,4.1c2.2,1.1,3.8,2.3,4.9,3.8c1.1,1.5,1.6,3.3,1.6,5.3c0,2.3-0.7,4.6-2.2,6.6
		c-1.5,2.1-3.7,3.7-6.5,5c-2.8,1.2-6.4,1.9-10.7,1.9c-6.2,0-11.3-1.2-15-3.5c-2.9-1.8-4.3-3.9-4.3-6.3c0-1.4,0.5-2.6,1.5-3.6
		c1-1,2.2-1.5,3.6-1.5c0.6,0,1.2,0.1,1.8,0.3c0.6,0.2,1.2,0.6,1.9,1.1c0.5,0.3,1.2,1,2.1,2.1c0.8,0.9,1.4,1.5,1.8,1.8
		c1.2,0.9,2.3,1.5,3.4,1.8c1,0.3,2.4,0.5,4,0.5c2.1,0,3.6-0.3,4.6-0.8c1.3-0.7,1.9-1.6,1.9-2.6c0-1-0.5-1.7-1.4-2.4
		c-0.7-0.5-3-1.4-7.1-2.7c-4.7-1.6-7.9-3.3-9.6-5.3c-1.8-1.9-2.7-4.2-2.7-6.7c0-2.2,0.7-4.3,2-6.2c1.4-1.9,3.5-3.4,6.3-4.6
		C818.5,69.7,822,69.1,826.2,69.1z"/>
	<path class="st0" d="M864.6,69.1h3.9L861.9,96c-0.5,1.9-0.7,3-0.7,3.4c0,0.4,0.1,0.8,0.4,1.1s0.6,0.4,1.1,0.4
		c1.3,0,2.8-0.9,4.7-2.8l4.1,5.1c-4.1,4.2-8.4,6.2-12.9,6.2c-2,0-3.7-0.4-5.1-1.1c-1.4-0.7-2.5-1.7-3.4-3.1c-0.8-1.4-1.3-2.7-1.3-4
		c0-0.5,0.1-1.3,0.3-2.4c0.2-1.7,0.5-3,0.8-4l3.7-14.9h-7.9l1.8-7.4C853.9,71.9,859.6,70.7,864.6,69.1z M863.4,52
		c2,0,3.5,0.6,4.6,1.9c1.1,1.3,1.7,2.8,1.7,4.6c0,1.3-0.3,2.6-1,3.8c-0.7,1.2-1.7,2.2-2.9,2.9c-1.3,0.7-2.5,1.1-3.7,1.1
		c-1.1,0-2.2-0.3-3.3-0.9c-1.1-0.6-1.9-1.4-2.5-2.4c-0.6-1-0.9-2.1-0.9-3.2c0-1.3,0.4-2.6,1.1-3.8c0.7-1.3,1.7-2.2,2.9-2.9
		C860.6,52.3,861.9,52,863.4,52z"/>
	<path class="st0" d="M911.2,70.1h8.8l-6.6,32.7c-0.6,3.1-1.1,5.3-1.5,6.6c-0.8,2.7-1.8,5-3.1,6.8c-1.3,1.9-3,3.6-5.2,5.1
		c-2.2,1.6-4.7,2.8-7.6,3.6s-6.1,1.3-9.5,1.3c-3.5,0-6.4-0.4-8.7-1.3c-2.4-0.8-4.1-1.9-5.1-3.2s-1.6-2.7-1.6-4.2
		c0-1.6,0.6-2.9,1.7-4c1.1-1.1,2.5-1.6,4.1-1.6c1,0,1.9,0.2,2.6,0.6s1.7,1.3,2.8,2.6c1,1.3,2,2.1,2.9,2.6c0.9,0.5,2,0.7,3.2,0.7
		c2.2,0,4.3-0.8,6.3-2.3c2-1.5,3.7-3.6,4.9-6.3c0.8-1.7,1.4-3.9,1.9-6.5c-1.4,1.5-2.7,2.7-3.9,3.5c-1.2,0.8-2.6,1.4-4.2,1.9
		s-3.1,0.7-4.7,0.7c-3.9,0-7.2-1.4-9.8-4.2c-2.6-2.8-3.9-6.4-3.9-10.7c0-4.6,1.1-8.8,3.2-12.8c2.1-4,4.9-7.1,8.3-9.3
		c3.5-2.2,7.2-3.3,11.1-3.3c2.1,0,4,0.3,5.7,0.9c1.6,0.6,3.4,1.8,5.4,3.4L911.2,70.1z M905.9,79.9c-1-0.9-2-1.6-3-2.1
		c-1-0.5-2-0.7-3-0.7c-1.7,0-3.4,0.6-5,1.9c-1.7,1.3-3.1,3.4-4.4,6.2c-1.2,2.9-1.9,5.8-1.9,8.9c0,2,0.4,3.6,1.2,4.6
		c0.8,1.1,1.8,1.6,3.1,1.6c2.1,0,4.2-1.3,6.3-4c3-3.8,5-8.6,6.3-14.4L905.9,79.9z"/>
	<path class="st0" d="M925.8,108.6l6.4-28.7h-6l1.6-7.4c4.8-0.3,9.7-1.4,14.8-3.4h3.6l-1.7,7.5c1.7-1.9,3.2-3.4,4.7-4.4
		c1.4-1,2.9-1.8,4.5-2.3c1.6-0.5,3.2-0.8,4.8-0.8c3.1,0,5.6,0.9,7.5,2.8c1.9,1.9,2.9,4.2,2.9,6.9c0,0.7,0,1.4-0.1,2
		c0,0.3-0.2,1.2-0.6,2.7l-2.7,12.3c-0.4,1.9-0.6,3-0.6,3.3c0,0.4,0.1,0.7,0.4,1c0.3,0.3,0.7,0.4,1.2,0.4c1.4,0,3-0.9,4.7-2.7
		l4.1,5.1c-2.5,2.4-4.8,4.1-6.8,5c-2,0.9-4.1,1.4-6.3,1.4c-3,0-5.4-0.9-7.1-2.6c-1.7-1.7-2.5-3.6-2.5-5.7c0-1.2,0.3-3,0.9-5.6
		l2.6-11.8c0.3-1.3,0.4-2.2,0.4-2.8c0-0.7-0.2-1.3-0.7-1.7c-0.5-0.4-1.1-0.7-2-0.7c-1,0-1.9,0.2-2.7,0.7c-1.4,0.8-2.9,2.3-4.5,4.5
		c-1.6,2.2-2.9,4.6-4,7.3c-1,2.7-2.2,6.7-3.4,11.9l-1.3,5.7H925.8z"/>
</g>
</svg>
